<svg xmlns="http://www.w3.org/2000/svg" viewBox="0 0 64 64" enable-background="new 0 0 64 64"><path d="M62.172 40.757c-2.81-3.92-7.69-6.516-7.69-6.516s4.83-5.094 6.557-10.14c1.724-5.046 2.118-10.925-6.212-12.2-8.33-1.273-16.907 4.36-16.907 4.36s-2.76-4.506-5.125-7.397C30.43 5.973 24.218.486 19.19 4.307s-4.14 14.795-4.14 14.795S2.48 16.996.214 23.12c-2.267 6.124 14.344 14.77 14.344 14.77-5.028 5.512-9.513 15.115-9.76 17.417-.246 2.303-.69 6.222 6.654 5.634s19.62-8.23 19.62-8.23 2.71 2.793 6.85 6.027c4.14 3.233 8.036 1.666 10.5-1.127 2.464-2.792 1.873-8.622 1.873-8.622s7.05.245 10.647-.98c3.598-1.226 4.042-3.332 1.232-7.25zm-8.774-24.104c4.042.735 5.225 6.026 3.993 9.357-1.23 3.33-4.14 7.35-4.14 7.35s-4.88-2.99-7.343-4.018c0 0-4.683-8.573-5.422-9.504 0 0 8.87-3.92 12.913-3.185zm-5.865 24.202l1.035 5.29s-2.317.246-6.457-.685c0 0 4.683-3.724 5.423-4.605zm-7.394 4.213c-.15.05-13.36-3.772-13.753-3.92-.394-.146-4.535-7.544-4.535-7.838 0-.294 8.872-7.79 10.45-8.622 0 0 10.45 4.164 11.485 5.193 1.035 1.03 3.4 9.358 3.4 9.358s-6.9 5.78-7.048 5.83zm6.505-13.67s4.978 2.89 5.225 3.234c.246.343-3.253 3.527-3.253 3.527s-1.627-6.222-1.972-6.76zm-8.527-10.336s3.5 4.605 3.993 6.026c0 0-6.752-2.792-8.428-3.184 0 0 2.12-1.617 4.436-2.842zM22 12.244c3.4-2.254 6.654-.49 9.513 2.058 2.86 2.547 3.845 3.527 3.845 3.527l-6.21 4.506-9.76-2.792s-.79-5.046 2.612-7.3zm-2.76 8.867l8.527 2.255-6.654 7.006s-2.022-4.8-1.874-9.26zm.825 13.547s.776 2.315 2.292 4.96c0 0-3.29-.92-4.806-1.91 0 0 1.258-2.13 2.515-3.05zM4.255 29c-3.105-3.283-3.648-5.93-1.48-7.3 2.17-1.373 12.472-.98 12.472-.98s.493 4.75 1.824 7.446c1.332 2.695 2.022 4.31 2.022 4.31s-3.007 3.332-3.4 3.97c-.002 0-8.332-4.165-11.437-7.447zM16.7 58.135c-4.916 1.727-8.17 2.352-9.426.808-1.257-1.543-1.33-2.61 0-5.952s6.58-12.052 9.242-14.33c0 0 2.292 2.02 7.616 3.527 0 0 2.92 6.282 5.767 9.662-.002 0-8.282 4.557-13.2 6.284zm14.418-7.19c-.246-.097-3.697-6.22-3.253-7.005l9.858 3.038s-2.17 1.47-3.845 2.5c-1.675 1.028-2.513 1.567-2.76 1.47zm14.886 7.25c-2.86 1.422-4.978 1.57-8.38-.98-3.4-2.547-5.57-5.34-5.57-5.34s4.19-2.155 7.296-4.555c0 0 3.648.834 6.21 1.226 2.564.392 3.698.49 3.698.49s-.395 7.74-3.254 9.16zM58.92 42.864c-.987 2.744-1.973 3.184-4.092 3.33-2.12.148-4.78.1-4.78.1s-1.184-5.93-1.48-6.91c0 0 3.45-2.547 4.634-3.722 0 .002 6.703 4.46 5.717 7.203zM33.964 30.248c-8.28 4.666-3.253 10.582-.037 11.72s6.322.074 8.096-1.946 2.33-6.026.59-7.863c-1.736-1.838-5.7-3.574-8.65-1.912zm7.973 6.05s-1.7-2.425-1.898-2.327c-.197.1-1.06.59-.863.81.197.22 2.39 2.914 2.39 3.012 0 .098-.37 1.15-.517 1.102-.148-.05-1.922-2.72-2.17-2.743-.245-.023-.96.638-.788.834.173.196 2.243 2.62 2.07 2.744-.172.122-.665.588-.813.514-.15-.073-1.677-2.474-1.972-2.523-.296-.05-.813.49-.715.636s1.553 2.13 1.405 2.254c-.148.122-.493.245-.616.17-.123-.072-1.33-2.13-1.553-2.155-.223-.025-.938.196-.913.514.025.317.79 1.69.59 1.787-.196.098-2.02-.123-3.523-2.156-1.504-2.032-1.282-4.36 1.035-6.32 1.647-1.393 4.73-1.542 6.653-.22 1.922 1.324 2.07 1.593 2.267 2.353.2.76-.072 1.715-.072 1.715zm-7.714-3.062c-.345.05-1.65 3.11-1.65 3.552 0 .44.863.774.935.76.122-.025.344-.1.32-.59-.025-.49.296-1.175.296-1.175s-.025.416-.025.71.198.735.346.857c.148.123.394 0 .616-.05.222-.048-.05.1.1-.905.147-1.004 1.108-1.984 1.01-2.474-.1-.488-1.603-.732-1.948-.684z"/></svg>