<svg xmlns="http://www.w3.org/2000/svg" viewBox="0 0 64 64" enable-background="new 0 0 64 64"><path d="M51.372 3c-1.71 0-25.098 27.117-25.526 27.117-.427 0-7.903-12.052-10.04-13.558C13.672 15.05 0 26.672 0 26.672c.427 1.29 8.758 10.868 14.418 18.186C20.078 52.175 25.205 61 27.768 61s5.02-3.66 11.428-11.514c6.408-7.855 24.137-30.453 24.778-32.067S53.08 3 51.372 3zm1.442 25.02s-1.482-2.906-1.842-2.866c-.36.04-1 .444-.84.646.16.202 1.68 2.663 1.56 2.865-.12.202-.96 1.695-1.16 1.332-.2-.363-1.282-2.583-1.602-2.623-.32-.04-.84.726-.72 1.01.12.28 1.24 2.582 1.24 2.582s-.6 1.29-.68 1.17c-.08-.12-1.282-2.865-1.522-2.905-.24-.04-1 .687-.92.848.08.16 1.84 2.865 1.72 3.147-.12.282-1.28 1.897-1.4 1.695-.12-.202-1.883-3.35-2.084-3.39-.2-.04-1.08.767-.88 1.05.2.28 2.202 3.47 2.002 3.71-.2.243-.6 1.736-1.04 1.534-.442-.202-2.284-4.116-2.564-4.156-.28-.04-.84.646-.88.807-.04.16 2.642 4.318 2.402 4.64-.24.324-1.242 2.1-1.402 2.1-.16 0-2.764-4.44-2.764-4.44s-.92.888-.84 1.09c.08.202 2.562 4.56 2.562 4.56s-1.04 1.695-1.202 1.654c-.16-.04-2.283-4.682-2.643-4.682-.36 0-.8.404-.72.767.08.363 2.602 4.72 2.442 4.963s-.88 1.897-1.202 1.735c-.32-.16-2.723-4.923-2.964-4.923-.24 0-.88.847-.72 1.05.16.2 2.924 4.68 2.764 5.003-.16.323-1.08 1.372-1.08 1.372l-3.085-5.448s-.842.444-.682.847c.16.404 2.804 5.407 2.683 5.77-.12.363-1.08 1.453-1.08 1.453s-2.523-5.407-3.004-5.407c-.48 0-.84.686-.76.928.08.242 3.083 5.488 2.923 5.73-.16.242-1.122 1.614-1.283 1.412-.16-.202-2.403-6.335-3.004-6.295-.6.04-.96.767-.8 1.29.16.526 3.083 5.852 2.883 6.054-.2.2-.76.927-.76.927s-3.926-5.972-4.166-6.013c-.24-.04-1.282.726-1 1.01.28.28 4.084 5.73 3.964 5.93-.12.203-.6.727-.76.687-.16-.04-6.01-7.343-11.255-14.445-5.25-7.1-13.26-17.31-13.26-17.31s10.895-7.667 11.456-7.183c.56.484 8.73 15.092 10.253 14.85 1.52-.242 16.26-16.948 19.384-20.74 3.124-3.794 6.408-7.103 6.89-7.103s9.29 10.733 9.13 10.975c-.16.242-7.69 10.734-7.69 10.734zM10.72 24.79c.32-.242-.44-.928-.8-1.05-.36-.12-3.245 1.817-3.566 2.22-.32.404 3.805 5.69 3.805 5.69.2-.04 1-.605 1.12-.807.12-.202-2.443-4.035-2.603-4.318-.16-.282 1.723-1.493 2.043-1.735zm40.45-14.123c.04.484 3.966 5.165 4.166 5.205.2.04.92-.404 1-.726.08-.323-3.66-5.908-4.244-5.488-.28.202-.96.525-.92 1.01z"/></svg>