<svg xmlns="http://www.w3.org/2000/svg" viewBox="0 0 64 64" enable-background="new 0 0 64 64"><path d="M61.882 22.935c-.814-.383-1.682-.11-2.17-1.752-.49-1.642.27-4.818.27-4.818s2.225-4.544 2.66-6.077c.433-1.533 1.03-2.847.107-4.38s-3.257-1.26-8.14-1.588-11.395-.11-20.783-.274-9.403.118-10.256.602c-2.604 1.478-6.673 10.402-13.13 21.844C3.982 37.936 1.052 42.7.346 44.67c-.706 1.97-.11 4.6-.163 5.146-.054.547-.054 2.573.27 4.106.327 1.533.707 2.573 4.125 3.832 3.418 1.26 7.867 1.533 19.154 1.752 11.287.22 21.543.766 23.604.328 2.062-.438 2.333-2.956 2.985-5.146.65-2.19 4.504-10.676 6.077-14.672 1.574-3.997 7.163-15.056 7.543-15.822.38-.766-1.248-.876-2.06-1.26zM9.165 33.68c4.558-7.31 11.355-19.464 13.267-22.42s2.686-4.476 3.134-4.6 12.86 0 19.372 0 10.825.042 12.982.37c2.157.33 2.483.494 2.157 1.48-.326.984-4.314 8.91-5.657 12.112-1.343 3.203-2.157 4.6-2.157 4.6s-1.017-2.424-1.18-2.424c-.163 0-.895.37-.895.698 0 .328 1.384 2.628 1.343 2.833-.04.204-.65 1.682-.65 1.682s-1.22-2.997-1.424-2.997c-.203 0-.895 1.11-.855 1.232s1.222 2.505 1.263 2.956c.04.452-.163 1.437-.366 1.355-.203-.082-1.343-3.08-1.465-3.08-.122 0-.692.493-.773.82s1.464 3.655 1.383 3.943c-.08.288-.692 2.218-.814 1.972-.123-.246-1.63-3.654-1.832-3.737-.203-.082-1.14.82-.977 1.11.164.286 1.832 4.023 1.75 4.35-.08.33-.447 2.095-.772 1.972s-1.79-4.517-2.116-4.6-1.343.494-1.14 1.028 2.36 4.845 2.32 5.338c-.04.493-.692 2.135-.895 2.094-.203-.04-1.872-5.092-2.157-5.215-.285-.123-.977.452-.936.78.04.328 2.564 5.83 2.157 6.364-.406.534-.732.78-.732.78s-2.686-6.323-3.134-6.323-1.14.452-1.017.862c.122.41 3.215 6.364 3.012 6.652s-1.14.78-1.14.78-3.135-7.02-3.338-7.02c-.203 0-1.058.86-1.017 1.19.04.328 2.93 5.913 2.767 5.913s-1.83.328-2.035.082c-.203-.246-3.46-6.98-3.58-7.02-.123-.042-1.18.327-1.018.86s3.5 5.832 2.93 5.75c-.57-.082-1.792-.41-1.792-.41s-2.523-5.05-2.645-5.05-.936.122-.855.656c.08.534 2.32 4.065 2.116 4.065s-2.4-.287-2.442-.534-1.262-3.327-1.546-3.327c-.285 0-1.22.328-.977.657.243.328 1.14 2.258.976 2.3-.163.04-.57.163-.733.08-.163-.08-1.384-2.463-1.546-2.463-.163 0-1.058.493-1.058.493s1.098 1.93.65 1.93-5.82-.862-11.558-.698c-5.738.164-9.075.534-9.075.534-.488.04-.895.04-.895.04S4.607 40.99 9.165 33.68zm40.82 15.315c-1.71 4.68-2.93 7.925-3.623 8.376s-10.54.617-17.58.288-10.42-.41-16.524-.82c-6.105-.412-8.22-1.315-8.71-2.054s-.69-7.514.286-7.72c.343-.07 1.83-.37 5.982-.533 4.15-.163 12.372-.204 18.517.7 6.145.902 8.628 1.765 10.825 1.64 2.198-.122 2.89-.37 2.89-.37s.488 3.204.977 4.23c.488 1.027.57 1.766.407 1.766s-9.645-.41-19.046-.493c-9.4-.082-15.22-.328-16.645-.698-1.423-.37-1.668-.41-1.912-1.683-.244-1.273.57-3.613.244-3.86s-1.302-.575-1.587-.287-.773 4.476-.122 5.584.692 1.6 4.6 1.97c3.906.37 12.86.74 19.167.985s12.33.328 13.837.328 2.035.082 3.174-1.11c1.14-1.19 2.768-5.132 4.478-8.58 1.71-3.45 5.657-11.128 5.657-11.128l.366-.205c0 .002-3.946 8.994-5.656 13.675zm9.32-24.842c-.367.534-10.46 20.284-11.925 23.487-1.465 3.203-2.442 4.927-2.442 4.927-.163-.04-1.628-4.6-1.506-4.804.122-.205 2.442-3.04 5.17-8.91s6.51-13.345 7.57-15.603 2.075-4.106 2.075-4.106-.163 2.135.163 2.997c.324.863 1.26 1.48.894 2.013zm-3.962 2.45c-.326.164-3.066 6.542-3.473 7.31-.407.765-.814 1.915-.516 1.778.3-.136 1.22-1.587 2.225-3.503 1.003-1.916 2.44-5.174 2.44-5.338 0-.165-.532-.32-.677-.247zM11.063 49.98s3.175-.11 5.86-.383 7.924 0 8.14 0c.217 0 .3-.274.054-.41s-2.85-.576-6.05-.713c-3.202-.137-7.65-.11-8.492.055-.84.163-1.14.875-1.085 1.286.055.41.49.33 1.574.164zm4.07 2.82c1.954-.082 5.183-.22 10.474-.548s9.903.41 10.907-.11c1.004-.52.515-1.395.08-1.45-.433-.055-1.49.082-2.414.164-.922.082-5.155-.192-8.492-.137-3.337.054-11.123.63-11.558.765-1.41.44-.95 1.397 1.004 1.315zm-6.81-10.594c.706.027 1.9-.027 2.687-.274.787-.246 1.14-1.122.814-1.314-.326-.192-1.926 0-2.523-.11-.596-.11-.19-.74.218-1.396.407-.657 3.04-4.188 3.337-5.064.3-.876-.76-.794-1.248-.684-.488.11-4.15 5.995-4.667 7.39-.515 1.397.884 1.433 1.384 1.452zm42.76-32.137c.624.218 2.85.163 3.337.41.488.246-.733 2.41-.895 2.984-.163.575 1.167.52 1.492.383.326-.137 1.655-3.997 1.737-4.708.08-.713-5.35-.886-5.915-.685-.462.163-.38 1.395.243 1.614zm-26.4 9.498c.923.082 3.962.383 11.64.575 7.678.192 10.04.684 10.852.082.814-.602 3.77-6.843 4.015-7.583.244-.74-.19-1.423-2.523-1.834-2.333-.41-8.71-.85-13.132-.903-4.422-.055-7.22.23-7.65.52-.408.274-4.288 6.707-4.668 7.473-.378.767.545 1.588 1.467 1.67zm.978-2.327c.19-.327 3.23-5.474 3.664-5.61.36-.115 8.384.136 12.48.245 4.097.11 7.163.74 7.353 1.013.19.274-1.628 4.05-2.09 4.79-.46.74-1.003 1.232-1.247 1.232s-8.22-.465-12.833-.657c-4.612-.192-6.674-.164-7.08-.356-.41-.19-.436-.327-.246-.656zm5.373.083c.542-.11.57-1.068.65-1.287.082-.22-2.143-.192-2.36-.22-.216-.026.3-.82.815-1.258.515-.438-.648-.872-1.384-.52-.516.246-1.926 3.093-1.737 3.175.19.083 3.473.22 4.016.11z"/></svg>