<svg xmlns="http://www.w3.org/2000/svg" viewBox="0 0 64 64" enable-background="new 0 0 64 64"><path d="M34.077 44.352c1.26-.822 6.96-4.496 7.29-4.99.328-.492-1.536-3.4-1.92-3.947-.383-.548 1.7-4.99 1.7-5.32 0-.328 2.466.165 3.124.22.66.055.768-.055.987-.877.22-.822 1.315-8.28 1.26-9.43s-5.04-1.207-5.04-1.207-.275-.986-.494-1.754c-.22-.768-1.425-3.674-1.425-3.948s2.028-1.92 2.52-2.632c.494-.713-1.15-1.864-2.52-3.4-1.37-1.534-5.645-5.043-6.303-4.99-.658.056-4.44 3.51-4.44 3.51s-1.643-.164-3.78-.274c-2.138-.11-3.673.274-4.057.22-.384-.056-.986-2.907-1.48-3.784-.493-.877-3.836.713-7.234 2.358-3.397 1.645-5.81 3.84-6.083 4.387-.273.548 1.974 3.783 1.974 3.783s-.603.274-1.754 2.742-1.37 5.044-1.37 5.044-3.014.055-3.836.932c-.822.877 1.206 9.76 1.644 10.747.438.988 4.987-.492 4.987-.492s1.04 1.755 1.754 2.467c.71.713 2.74 2.632 2.85 2.906.11.275-1.755 3.84-1.864 4.168-.11.33.33.768 2.028 1.7 1.7.932 7.125 2.358 8.495 2.303 1.37-.054 2.082-3.618 2.465-4.11.384-.494 4.604.163 5.097.547.493.384 1.59 3.62 2.137 4.057.547.438 2.027-.11 3.287-.932zM27.94 34.1c-.165 0-.987.328-.933.657.055.33 1.535 3.51 1.37 3.51-.164 0-1.096.11-1.37 0s-1.59-3.346-1.81-3.346c-.218 0-1.15.056-1.095.494.055.44 1.59 2.74 1.096 2.74s-1.754-.547-2.63-.383c-.878.165-1.207 1.262-1.59 1.81-.384.548-.658 2.138-1.206 2.138-.548 0-5.755-1.92-5.755-2.248s1.81-3.29 1.315-3.838c-.493-.548-2.357-1.755-4.11-4.332-1.754-2.577-1.863-3.29-2.41-3.235-.55.055-3.454 1.26-3.618 1.042-.164-.217-1.424-6.25-.876-6.413.548-.164 2.685.11 2.74-.22s.712-4.605 1.973-6.58 1.864-2.85 1.974-3.18c.088-.264-1.644-3.07-1.425-3.563.218-.492 2.027-1.808 3.56-2.74s4.55-2.03 4.66-1.755c.11.274 1.205 3.564 1.698 3.51.493-.056 3.18-.44 5.81-.275s4.164.548 4.438.33c.274-.22 3.014-2.962 3.288-2.962s5.7 4.88 5.59 5.044c-.11.164-3.18 2.467-2.63 3.454.547.987 1.753 1.864 2.356 4.277.603 2.413 1.206 3.016 1.37 3.016s4.056.438 4.056.767c0 .33-.658 5.593-.877 5.593s-3.29-.658-3.51-.44c-.218.22-.985 1.262-.985 1.262s-2.302-3.51-2.466-3.454c-.165.055-1.152.658-.823 1.042.33.384 2.905 3.235 2.96 3.62.054.383-.66 3.015-.823 3.015s-2.795-4.99-2.96-4.99c-.163 0-.93.713-.82.877.11.164 3.342 5.976 3.342 5.976s-.658 1.535-.384 2.03c.274.492 1.425 2.302 1.315 2.466-.11.164-.493.44-.493.44s-4.44-8.938-4.878-8.993c-.438-.054-1.096.55-.932.77.164.218 4.878 8.662 4.713 8.88-.164.22-1.315.823-1.315.823s-3.946-8.005-4.11-7.95c-.164.055-.986.603-.877.932.11.33 4 7.62 3.836 7.786s-1.15.933-1.15.77-1.26-3.126-1.7-3.4c-.437-.274-.876-.44-.876-.44s-1.86-4.33-2.025-4.33zM15.497 18.36c-.493.603-1.15 1.59-1.425 4.44-.274 2.852.932 4.497 1.315 4.497.384 0 1.04-.604 1.04-1.372 0-.768-.547-.548-.766-2.303-.22-1.755.712-3.016 1.096-3.893.385-.876-1.083-1.586-1.26-1.37zm17.32 3.29c-.22-2.577-4.002-5.707-8.167-5.044-8.275 1.316-6.96 7.62-5.425 9.486 1.535 1.864 4.987 4.057 8.933 2.85 3.946-1.206 4.878-4.715 4.66-7.292zm-4.44 4.058c-1.754 1.48-4.056 1.206-5.92-.493-1.862-1.7-1.972-4.99 2.467-6.14 1.073-.28 3.562.602 4.33 1.7.767 1.094.876 3.452-.877 4.933zm34.582-9.54c-.274-.55-3.234-1.48-3.234-1.48s.11-.494.22-1.92-.33-2.522-.33-2.522 1.918-.877 2.302-1.097c.384-.218.11-1.315-.877-3.234s-2.63-4.715-3.178-4.66c-.548.054-2.247 2.028-2.247 2.028s-.822-.713-2.576-1.426c-1.755-.713-3.947.11-3.947.11s-1.26-1.48-1.59-1.81c-.328-.328-1.04-.163-2.19.66s-3.892 4.55-4.166 5.153c-.274.604 2.63 4.66 2.63 4.826s-2.3.987-2.63 1.26c-.33.275-.11 1.043.438 3.29.548 2.25 1.804 3.204 2.028 3.236.767.11 1.096-1.042.932-1.26-.164-.22-1.7-3.73-1.754-4.113-.054-.385 2.303-1.152 2.96-1.756.658-.603-1.535-3.564-2.083-4.167-.548-.603-.877-.822.274-2.248 1.152-1.427 2.796-2.688 2.796-2.688s.877.932 1.973 1.316c1.095.384 1.314-.548 3.506-.384 2.192.164 2.302 1.974 3.343 1.92 1.04-.056 1.698-1.536 1.753-1.7.055-.165 2.85 4.714 2.85 4.714s-2.96 1.15-3.07 1.426c-.11.274.604.932 1.262 2.248.658 1.316-.274 4.112-.274 4.112l2.74.932s-2.246 3.4-2.575 3.728c-.33.33-1.59-1.206-2.083-1.755-.493-.55-4.604-.056-5.48 0-.877.054-.22.93-.11 2.137.11 1.206-2.685.274-3.234.33-.548.054-.438 1.37-.164 1.918.274.548 4-.055 4.932-.44.932-.383.33-1.918.22-2.137-.11-.22 2.958-.11 2.958-.11s2.52 1.755 3.398 1.974c.877.22 2.466-3.29 2.905-3.893.44-.602 1.647-1.973 1.373-2.52zm-12.825-8.5c-2.85.494-3.453 3.18-2.905 4.88.548 1.7 1.754 3.07 4 2.578 2.248-.493 2.522-2.193 2.96-4.003.44-1.81-1.168-3.954-4.055-3.454zm2.302 4.497c-.548 1.042-1.206 1.755-2.41 1.37-1.207-.383-1.864-3.07.876-3.508.812-.132 2.082 1.095 1.534 2.137zm.055 3.618c-1.15.493-.493 1.042.11 1.206.603.165 1.315.11 2.576-.82 1.26-.933.548-1.865.384-1.865s-.493.932-1.26 1.26c-.77.33-1.454.068-1.81.22zm.22 23.467s-.33-.493-1.426-.932c-1.096-.44-3.782-.493-4.33-.493s-.055-3.564-.603-4.277c-.548-.713-5.974.822-6.248.987s.055 1.042.055 1.535c0 .493 1.81 2.084 1.81 2.084s.11-1.864.054-2.412c-.055-.548 2.302-.822 2.63-.822.33 0 .165 3.29.22 4.003.055.713.603 1.097 1.26 1.26s1.262-.602 3.235-.492c1.972.11 2.63 1.206 2.904 1.645.274.44 4.55-1.864 4.823-1.864.274 0 2.192 4.057 2.192 4.386s-2.96 1.974-3.4 2.248c-.377.236.22 1.404.393 1.724l-2.145-3.917s-.603.164-.932.548c-.33.384 2.74 4.496 2.74 4.496s0 1.644-.164 1.863c-.164.22-2.63-4.386-2.74-4.606-.11-.22-.877.384-.986.548-.11.164 3.288 5.373 3.288 5.373s-.33 2.248-.548 2.358c-.22.11-2.357-4.496-2.576-5.044-.22-.548-.932.274-1.096.822-.164.548 4.165 8.28 4.384 8.718.22.44-.603.932-.822.932-.22 0-3.836-6.744-4-7.018-.165-.274-1.262.932-1.262.932s4.056 6.525 4.384 6.91c.33.383-.658.492-1.26.767-.604.274-4.77-7.073-4.988-7.183-.22-.11-.932.603-1.15.932-.22.33 2.3 2.906 2.465 3.235.164.328-1.206.492-1.535.602-.33.11-1.918-2.742-2.083-3.235s-.932-.055-1.37.384c-.438.44 1.644 2.468 1.754 2.907.11.44-2.575-.877-3.342-.822-.767.055-2.302 2.96-2.576 3.29-.274.33-4-2.138-4.33-2.358-.33-.22 1.535-2.303 1.918-2.687.384-.384.055-.384-1.644-2.303-1.7-1.92-1.48-3.62-1.48-3.783s-2.52-.44-2.795-.44c-.273 0-.163-1.15.056-1.534.22-.384 1.59.548 2.028.548.438 0 .384-.164.603-.713.22-.548 1.096-1.59 2.247-2.632s6.63-4.55 7.07-4.715c.438-.164.164-.768-.274-.822-.438-.055-5.974 2.687-7.18 3.62-1.206.93-3.07 3.18-3.07 3.18s-2.027-.55-2.465-.494c-.438.055-.712 4.057-.712 4.935 0 .877 2.905.22 2.905.22s.493.712.767 2.247 1.973 2.467 1.973 2.467-2.52 2.25-2.466 2.962c.055.713 6.522 4.332 7.18 4.66.658.33 3.18-3.673 3.18-3.673s1.588.328 2.575.438c.986.11 4.275-.22 4.275-.22s1.918 2.962 2.41 3.29c.494.33 5.536-4.276 5.92-4.99.384-.712-1.26-2.63-1.863-3.124s-.11-.768.82-3.07c.933-2.303.66-5.976.66-5.976s2.684-1.645 3.287-2.193c.603-.548-3.014-6.744-3.562-7.128-.55-.387-5.044 1.915-5.044 1.915zm-14.086 8.335c-.493-.164-1.096.493-1.096.768 0 .274.548 3.564 1.37 4.112.822.548 1.59-.22 1.863-.603.274-.384-.274-.768-.822-1.7-.546-.932-.95-2.456-1.314-2.577zm3.672 3.18c1.37 1.042 4.165 1.206 5.755.11 1.59-1.097 2.192-2.85.548-5.538-1.643-2.688-3.986-2.057-5.206-1.536-4.877 2.083-2.466 5.92-1.096 6.963zm2.138-5.703c.756-.108 2.083-.33 3.014 1.316.932 1.645.658 3.07-1.04 3.51-1.7.438-3.563-.55-4.166-1.262-.603-.712-.494-3.18 2.192-3.564z"/></svg>