<svg xmlns="http://www.w3.org/2000/svg" viewBox="0 0 64 64" enable-background="new 0 0 64 64"><path d="M62.826 33.406c-.09-2.838-1.76-3.784-1.896-3.92-.135-.134.045-1.08.135-1.936.09-.856.135-1.892-.677-4.91-.813-3.018-3.522-5.316-4.74-5.766s-3.613-.856-4.56-.45c-.95.405-1.22 1.667-1.175 1.982.045.315.542.405 2.077.54s2.483.677 4.425 2.794c1.94 2.117 1.806 5.27 1.58 6.893-.226 1.622-1.625 4.46-3.07 5.9-1.445 1.443-4.515 2.073-5.012 2.524-.497.45.226 1.487.948 1.532.723.044 2.575-.136 4.832-1.262 2.258-1.126 3.477-3.964 3.973-3.874.497.09.406 5.27-.497 9.55s-3.25 5.947-5.057 7.208c-1.805 1.26-2.573.45-3.25.54-.677.09-.813 1.398-.632 1.668s1.084.9 3.747.586 3.838-1.757 3.973-1.712c.135.045-.542 2.162-1.445 3.92s-2.122 2.837-3.747 3.783c-1.625.946-4.515 2.027-7.09 2.117s-3.7-.766-5.507-2.883-.588-4.774.315-5.18 2.077.27 2.935 0 .858-1.712.587-2.298-1.31-.99-2.89-2.027c-1.58-1.036-1.987-2.343-2.122-4.054-.135-1.71 1.31-4.414 2.348-4.91s1.896.45 2.393.45c.497 0 1.13-.585 1.13-1.486s-.904-1.306-1.897-1.847c-.994-.54-2.35-1.126-2.484-5-.135-3.874 4.2-6.938 4.56-7.163.36-.225.135-.81.09-1.126s3.115-3.334 4.425-6.667c1.31-3.333.723-5.315-.225-8.603-.948-3.29-5.6-7.478-9.662-8.154s-7.81.99-7.946 1.306-.542 5.63-.993 7.928-2.574 6.983-4.154 8.965-3.793 2.568-5.553 3.108-5.012 1.848-5.012 1.848c-3.883-5.676-9.12-2.613-11.468.496S1.24 31.022 1.015 39.49 3.092 52.737 4.808 55.26c1.716 2.523 4.56 4.685 7.676 4.46s4.83-2.117 4.83-2.117 2.89 1.037 6.548 1.172c3.657.135 6.953-1.667 6.953-1.667s.993.676 2.438 1.26c1.445.587 3.702.722 3.702.722s.677 1.126 1.355 1.847c.677.72 2.348 2.162 5.012 2.838 2.664.676 6.005-.135 10.926-2.433s5.373-5.722 6.547-9.056c1.174-3.334-.316-3.874-.542-4.235s.316-1.398 1.76-4.82c1.445-3.427.903-6.986.813-9.824zM37.722 49.58c.813.945.858 1.305.858 1.305s-1.896 1.08-2.303 2.388c-.406 1.306-.406 3.018-.406 3.018s-1.715-.54-2.573-1.71c-.858-1.172-.858-1.623-1.49-1.713-.632-.09-1.084-.405-2.032.54-.948.947-1.038 1.127-1.67 1.623-.633.496-.95.45-.95.45s2.033-2.072 1.717-2.388c-.316-.315-1.084-.405-1.31-.135-.225.27-1.67 2.703-1.986 2.793s-2.528.45-2.528.27 3.386-3.92 3.296-4.235c-.09-.315-.722-.856-1.22-.586-.496.27-3.024 4.504-3.385 4.504-.362 0-2.213-.135-2.078-.54s3.883-4.686 3.567-5.137c-.317-.45-1.49-.045-1.626.045s-2.844 4.46-3.296 4.46-2.077-.766-1.85-1.306c.225-.54 4.017-4.73 3.927-5.136-.09-.405-.948-.72-1.084-.676-.134.045-3.34 4.91-3.837 4.865-.497-.046-1.76-.902-1.4-1.758.36-.856 4.154-4.19 3.928-4.685s-1.037-.99-1.263-.81c-.226.18-3.296 4.504-3.567 4.324-.27-.18-1.806-2.16-2.032-5.63-.226-3.47.226-4.775 0-5.676s-.677-.946-1.58-.99c-.902-.044-1.128.992-1.128 2.164 0 1.17-.587 6.757 1.31 10.722s4.966 6.037 4.966 6.037-1.49 1.577-3.567.81c-2.078-.765-4.697-3.918-6.187-9.46s-.993-12.3-.36-15.497c.63-3.2 2.527-6.802 3.385-7.84s4.064-2.522 5.644.767c0 0-2.844 3.83-2.935 5.136-.09 1.306-.18 1.892.632 2.298.812.406 1.354.406 2.166-1.576s2.258-3.83 3.612-4.64c1.355-.81 2.98-1.126 6.682-2.703 3.702-1.576 5.283-2.25 7.224-6.216s2.528-5.63 3.07-8.785c.542-3.154.632-4.596.632-4.596s2.844-1.667 5.96-.586c3.115 1.08 5.463 4.595 6.186 7.208.722 2.613.09 5.496-.18 6.082-.272.586-.588 1.532-.588 1.532s.406-2.343-.226-3.83c-.632-1.486-.768-1.666-1.13-1.666-.36 0-1.218.27-.947.946s.86 2.703.86 3.604.45 1.802.18 2.343-.768.676-.768.676-.18-4.46-1.4-4.415c-1.22.045-1.264 1.036-1.038 1.397s.813 2.117.858 3.334c.045 1.215.226 1.89 0 1.936s-.45-1.982-1.084-2.658c-.632-.676-.903-.72-1.13-.36-.225.36.994 1.892.994 2.343 0 .45.09 1.082-.045 1.217s-1.174.81-1.174 1.35.045 1.217.045 1.217-1.94 1.802-2.483 5.18 1.535 6.984 1.535 6.984-3.025 3.29-3.206 6.127c-.178 2.836.996 4.998 1.808 5.944zm-.677-39.33c.993-.09 1.49-3.513 1.264-3.918-.227-.405-1.456-.16-1.49 0-.272 1.216-.633 2.703-.904 3.424s.136.585 1.13.495zM23.14 26.38c-2.123.54-2.845.224-3.478.585-.632.36-2.71 3.2-2.62 3.74.09.54.82.553 1.085.495.406-.09 1.85-2.207 2.258-2.523.406-.315 1.084-.27 2.483-.45 1.4-.18 4.018-1.982 4.605-2.613.587-.63.722-1.08.406-1.036s-2.62 1.26-4.74 1.8zm22.89 9.37c.226-.18.813-.992.993-2.974.18-1.982-.762-4.987-.948-5-.632-.045-1.174.405-1.22.676-.044.27-.044.315.543 1.892.587 1.577.18 3.784.18 4.505 0 .72.226 1.08.452.9zm.768 7.027c-1.896-.135-1.13.856-.903 1.397.226.54.18.9.316 2.883.136 1.982-.54 2.973 0 2.973s.86-.766 1.13-2.883.005-4.33-.542-4.37zm-.407 16.127c.362-.63.407-1.892.227-2.298-.18-.405-.858-.63-1.13-.405 0 0-.405 3.064-.09 3.47s.633-.135.994-.766z"/></svg>